# xmcd CD database file
#
# Track frame offsets:
#	150
#	28114
#	50333
#	80753
#	118701
#	152611
#	167347
#	197363
#	212892
#
# Disc length: 2958 seconds
#
# Revision: 0
# Processed by: cddbd v1.4PL0 Copyright (c) Steve Scherf et al.
# Submitted via: CDex 1.51
#
DISCID=6e0b8c09
DTITLE=Alison Keslow - Between Earth and Sky
DYEAR=2003
DGENRE=Jazz
TTITLE0=Says Who
TTITLE1=Three Gems
TTITLE2=When It Rains
TTITLE3=The River Is You
TTITLE4=Birch Walk
TTITLE5=There Is No Greater Love
TTITLE6=You Stepped Out Of A Dream
TTITLE7=You Got It
TTITLE8=Earth Tones
EXTD=YEAR: 2003
EXTT0=
EXTT1=
EXTT2=
EXTT3=
EXTT4=
EXTT5=
EXTT6=
EXTT7=
EXTT8=
PLAYORDER=
